<svg width="21" height="20" viewBox="0 0 21 20" fill="none" xmlns="http://www.w3.org/2000/svg">
<path d="M8.16251 4.79398L3.15147 9.80502C1.96342 10.9931 1.3694 11.5871 1.14683 12.2721C0.951056 12.8746 0.951057 13.5237 1.14683 14.1262C1.3694 14.8112 1.96342 15.4052 3.15147 16.5932L3.4711 16.9129C3.98996 17.4317 4.24938 17.6912 4.55213 17.8767C4.82055 18.0412 5.11319 18.1624 5.41929 18.2359C5.76456 18.3188 6.13144 18.3188 6.86521 18.3188H8.95574L9.34459 17.8888L15.3009 11.9324L8.16251 4.79398Z" fill="white" fill-opacity="0.24"/>
<path d="M17.9901 18.3188H8.95574M8.16251 4.79398L3.15147 9.80502C1.96342 10.9931 1.3694 11.5871 1.14683 12.2721C0.951056 12.8746 0.951057 13.5237 1.14683 14.1262C1.3694 14.8112 1.96342 15.4052 3.15147 16.5932L3.4711 16.9129C3.98996 17.4317 4.24938 17.6912 4.55213 17.8767C4.82055 18.0412 5.11319 18.1624 5.41929 18.2359C5.76456 18.3188 6.13144 18.3188 6.86521 18.3188H8.95574M8.16251 4.79398L9.80502 3.15147C10.9931 1.96342 11.5871 1.3694 12.2721 1.14683C12.8746 0.951057 13.5237 0.951057 14.1262 1.14683C14.8112 1.3694 15.4052 1.96342 16.5932 3.15147L16.9434 3.50168C18.1315 4.68973 18.7255 5.28375 18.9481 5.96874C19.1439 6.57127 19.1439 7.22031 18.9481 7.82284C18.7255 8.50782 18.1315 9.10185 16.9434 10.2899L15.3009 11.9324M8.16251 4.79398L15.3009 11.9324M15.3009 11.9324L9.34459 17.8888L8.95574 18.3188" stroke="white" stroke-width="2" stroke-linecap="round" stroke-linejoin="round"/>
</svg>
