<svg width="19" height="19" viewBox="0 0 19 19" fill="none" xmlns="http://www.w3.org/2000/svg">
<path d="M15.1402 10.0538L10.097 15.097L12.9254 17.9254L17.9686 12.8823L15.1402 10.0538Z" fill="white" fill-opacity="0.24"/>
<path d="M10.097 15.097H6.82682C6.20478 15.097 5.89377 15.097 5.62913 14.9929C5.39544 14.901 5.18856 14.7519 5.02746 14.5593C4.84504 14.3411 4.74669 14.0461 4.54998 13.4559L1.61489 4.65068C1.12634 3.18503 0.882071 2.45221 1.05585 1.96489C1.13143 1.75293 1.25261 1.56354 1.40786 1.40823M10.097 15.097L15.1402 10.0538M10.097 15.097L12.9254 17.9254L17.9686 12.8823L15.1402 10.0538M15.1402 10.0538L15.097 6.82682C15.097 6.20478 15.097 5.89377 14.9929 5.62913C14.901 5.39544 14.7519 5.18856 14.5593 5.02746C14.3411 4.84504 14.0461 4.74669 13.4559 4.54998L4.65068 1.61489C3.18504 1.12634 2.45221 0.88207 1.96489 1.05585C1.75276 1.13149 1.56324 1.2528 1.40786 1.40823M1.40786 1.40823L7.02218 7.01625M7.02218 7.01625C6.65822 7.37845 6.43294 7.87987 6.43294 8.43391C6.43294 9.53848 7.32837 10.4339 8.43294 10.4339C9.53751 10.4339 10.4329 9.53848 10.4329 8.43391C10.4329 7.32934 9.53751 6.43391 8.43294 6.43391C7.88241 6.43391 7.38383 6.65635 7.02218 7.01625Z" stroke="white" stroke-width="2" stroke-linecap="round" stroke-linejoin="round"/>
</svg>
